<svg id="Capa_1" data-name="Capa 1" xmlns="http://www.w3.org/2000/svg" xmlns:xlink="http://www.w3.org/1999/xlink" viewBox="0 0 1612.62 3616.23"><defs><style>.cls-1,.cls-5{fill:none;}.cls-2{clip-path:url(#clip-path);}.cls-3{fill:#54b443;}.cls-4{fill:#074b15;}.cls-5{stroke:#fff;stroke-miterlimit:10;}</style><clipPath id="clip-path"><rect class="cls-1" x="209.97" y="1180.23" width="1200.75" height="2436"/></clipPath></defs><g class="cls-2"><path class="cls-3" d="M605.07,1180.23a378.48,378.48,0,0,0-40.6,94.17c-18.83,68.35-19.54,141.49-45.88,207.31-44.2,110.44-153.12,181.74-264,224.92-14.76,5.75-29.66,11.13-44.66,16.26V1180.23Z"/><path class="cls-3" d="M1410.72,1180.23V2866c-94.77,52-169.88,141.06-198.68,245.57-18.84,68.34-19.55,141.48-45.89,207.3-44.2,110.44-153.12,181.74-264,224.93-73,28.43-149.36,47.87-223.7,72.41H210V1911c75.23-25,152.64-44.56,226.56-73.36,110.84-43.18,219.76-114.49,264-224.93,26.34-65.81,27-139,45.88-207.3,25.33-91.89,86.46-171.81,165.28-225.14Z"/><path class="cls-3" d="M1410.72,3194.8v421.43H1200.84c64.53-41.45,119-95.95,147.21-166.37,26.34-65.82,27-139,45.89-207.31A370.57,370.57,0,0,1,1410.72,3194.8Z"/><path class="cls-4" d="M118.11,2820.73a3.12,3.12,0,0,1-1.11-.21,3,3,0,0,1-1.77-3.64l324-1100.42H6A3,3,0,0,1,3.38,1712L435,938.46a3,3,0,0,1,2.62-1.54,3.17,3.17,0,0,1,1.12.21,3,3,0,0,1,1.78,3.55L278.94,1559.12H751.52a3,3,0,0,1,2.68,4.35L120.79,2819.08A3,3,0,0,1,118.11,2820.73Z"/><path class="cls-4" d="M437.62,939.92h0m0,0-162.56,622.2H751.52L118.11,2817.73,443.22,1713.46H6L437.62,939.92m0-6a5.79,5.79,0,0,0-.72,0,5.86,5.86,0,0,0-2.62,1,6.07,6.07,0,0,0-1.49,1.42,7.25,7.25,0,0,0-.47.75L.76,1710.54A6,6,0,0,0,6,1719.46H435.2L112.35,2816a6,6,0,0,0,3.55,7.28,6.1,6.1,0,0,0,2.21.42,6,6,0,0,0,5.36-3.3L756.88,1564.82a6,6,0,0,0-5.36-8.7H282.83L443.37,941.64a6.11,6.11,0,0,0,.25-1.72,6,6,0,0,0-5.37-6h0c-.2,0-.41,0-.61,0Zm0,12Z"/><path class="cls-4" d="M1414,1899.83h-.28a3,3,0,0,1-2.72-2.88l-21.82-638.83-452.88,135a2.8,2.8,0,0,1-.86.13,3,3,0,0,1-2.95-3.53L1180.79,5.47a3,3,0,0,1,3-2.47h.26a3,3,0,0,1,2.74,3l3.86,1147.11,415.16-123.75a3.19,3.19,0,0,1,.86-.12,3,3,0,0,1,2.93,3.65l-192.66,864.61A3,3,0,0,1,1414,1899.83Z"/><path class="cls-4" d="M1183.74,6l3.88,1151.12,419-124.89L1414,1896.83l-22-642.71L935.4,1390.23,1183.74,6m0-6a6,6,0,0,0-5.91,4.94L929.5,1389.17a6,6,0,0,0,5.9,7.06,5.9,5.9,0,0,0,1.71-.25l449.16-133.89L1408,1897a6,6,0,0,0,5.45,5.77l.56,0a6,6,0,0,0,5.85-4.69l192.66-864.61a6,6,0,0,0-5.86-7.3,5.9,5.9,0,0,0-1.71.25l-411.32,122.6L1189.74,6a6,6,0,0,0-5.48-6l-.52,0Z"/><path class="cls-5" d="M404.09,2194.54c50.78,0,50.78,32.5,101.56,32.5s50.78-32.5,101.56-32.5S658,2227,708.77,2227s50.79-32.5,101.57-32.5S861.12,2227,911.9,2227s50.78-32.5,101.56-32.5S1064.25,2227,1115,2227s50.79-32.5,101.57-32.5"/><path class="cls-5" d="M404.09,2107.23c50.78,0,50.78,32.5,101.56,32.5s50.78-32.5,101.56-32.5,50.78,32.5,101.56,32.5,50.79-32.5,101.57-32.5,50.78,32.5,101.56,32.5,50.78-32.5,101.56-32.5,50.79,32.5,101.57,32.5,50.79-32.5,101.57-32.5"/><path class="cls-5" d="M404.09,2019.91c50.78,0,50.78,32.51,101.56,32.51s50.78-32.51,101.56-32.51,50.78,32.51,101.56,32.51,50.79-32.51,101.57-32.51,50.78,32.51,101.56,32.51,50.78-32.51,101.56-32.51,50.79,32.51,101.57,32.51,50.79-32.51,101.57-32.51"/><path class="cls-5" d="M404.09,1932.6c50.78,0,50.78,32.5,101.56,32.5s50.78-32.5,101.56-32.5,50.78,32.5,101.56,32.5,50.79-32.5,101.57-32.5,50.78,32.5,101.56,32.5,50.78-32.5,101.56-32.5,50.79,32.5,101.57,32.5,50.79-32.5,101.57-32.5"/></g></svg>