<svg id="Capa_1" data-name="Capa 1" xmlns="http://www.w3.org/2000/svg" viewBox="0 0 494.67 500"><defs><style>.cls-1{fill:#0b5e15;}</style></defs><path class="cls-1" d="M327.72,112.34c-5-30.6-21.6-61.26-46.67-86.33A181.1,181.1,0,0,0,249.69.87a5.68,5.68,0,0,0-6,0A180.91,180.91,0,0,0,212.29,26c-25.07,25.07-41.64,55.73-46.67,86.33-5.14,31.29,2.34,58.83,21.06,77.55A75.12,75.12,0,0,0,219.53,209a92.14,92.14,0,0,0,21,3.39v32.92a5.66,5.66,0,1,0,11.32,0v-33a122.75,122.75,0,0,0,21.66-3.26l.23-.06a75.12,75.12,0,0,0,32.89-19.1C325.39,171.17,332.86,143.63,327.72,112.34Zm-29.06,69.54h0a63.86,63.86,0,0,1-27.88,16.19,111.22,111.22,0,0,1-18.89,2.9V176.65l36.74-36.73a5.66,5.66,0,0,0-8-8l-28.73,28.73V118.15l17.54-17.54a5.66,5.66,0,1,0-8-8l-9.54,9.53V62a5.66,5.66,0,1,0-11.32,0v40.12L231,92.6a5.66,5.66,0,1,0-8,8l17.54,17.54v42.49l-28.73-28.73a5.66,5.66,0,0,0-8,8l36.74,36.73V201a81,81,0,0,1-17.92-2.94,63.82,63.82,0,0,1-28-16.22c-16.08-16.07-22.43-40.12-17.9-67.71,4.65-28.28,20.1-56.75,43.51-80.16A170.51,170.51,0,0,1,246.67,12.4,170.66,170.66,0,0,1,273,34c23.41,23.41,38.86,51.88,43.51,80.16C321.08,141.76,314.73,165.81,298.66,181.88Z"/><path class="cls-1" d="M165.62,387.66c5,30.6,21.6,61.26,46.67,86.33a181.1,181.1,0,0,0,31.36,25.14,5.68,5.68,0,0,0,6,0A180.91,180.91,0,0,0,281.05,474c25.07-25.07,41.64-55.73,46.67-86.33,5.14-31.29-2.34-58.83-21.06-77.55A75.12,75.12,0,0,0,273.81,291a92.14,92.14,0,0,0-21-3.39V254.71a5.66,5.66,0,1,0-11.32,0v33A122.75,122.75,0,0,0,219.79,291l-.23.06a75.18,75.18,0,0,0-32.89,19.1C168,328.83,160.48,356.37,165.62,387.66Zm29.06-69.54h0a63.86,63.86,0,0,1,27.88-16.19,111.37,111.37,0,0,1,18.89-2.9v24.32l-36.74,36.73a5.66,5.66,0,0,0,8,8l28.73-28.73v42.49l-17.54,17.54a5.66,5.66,0,0,0,8,8l9.54-9.53V438a5.66,5.66,0,1,0,11.32,0V397.87l9.53,9.53a5.66,5.66,0,0,0,8-8l-17.54-17.54V339.36l28.73,28.73a5.66,5.66,0,0,0,8-8l-36.74-36.73V299a80.85,80.85,0,0,1,17.92,2.94,63.92,63.92,0,0,1,28,16.22c16.07,16.07,22.43,40.12,17.89,67.71C311.9,414.11,296.45,442.58,273,466a170.51,170.51,0,0,1-26.37,21.61A170.66,170.66,0,0,1,220.3,466c-23.41-23.41-38.86-51.88-43.51-80.16C172.26,358.24,178.61,334.19,194.68,318.12Z"/><path class="cls-1" d="M382.34,330.39c30.6-5,61.26-21.61,86.32-46.68a180.25,180.25,0,0,0,25.14-31.36,5.68,5.68,0,0,0,0-6A180.91,180.91,0,0,0,468.66,215c-25.06-25.06-55.72-41.64-86.32-46.67-31.29-5.14-58.84,2.34-77.56,21.06a75.23,75.23,0,0,0-19.09,32.85,92.77,92.77,0,0,0-3.39,21.05H249.38a5.66,5.66,0,0,0,0,11.32h33a123,123,0,0,0,3.25,21.66c0,.07,0,.15.07.23a75.13,75.13,0,0,0,19.09,32.88C323.5,328.05,351.05,335.53,382.34,330.39Zm-69.55-29.07h0a63.84,63.84,0,0,1-16.19-27.88,112.27,112.27,0,0,1-2.9-18.88H318l36.74,36.73a5.66,5.66,0,0,0,8-8L334,254.56h42.5l17.53,17.54a5.66,5.66,0,1,0,8-8l-9.53-9.53h40.13a5.66,5.66,0,0,0,0-11.32H392.54l9.53-9.54a5.66,5.66,0,1,0-8-8l-17.53,17.53H334l28.73-28.73a5.66,5.66,0,0,0-8-8L318,243.23H293.63a80.28,80.28,0,0,1,2.95-17.91,63.9,63.9,0,0,1,16.21-28c16.07-16.08,40.12-22.43,67.71-17.9,28.28,4.65,56.75,20.1,80.16,43.51a170.87,170.87,0,0,1,21.61,26.37,169.69,169.69,0,0,1-21.61,26.38c-23.41,23.4-51.88,38.85-80.16,43.5C352.91,323.75,328.86,317.4,312.79,301.32Z"/><path class="cls-1" d="M112.34,168.28c-30.6,5-61.26,21.61-86.33,46.68A180.72,180.72,0,0,0,.87,246.32a5.66,5.66,0,0,0,0,6A180.16,180.16,0,0,0,26,283.71c25.07,25.07,55.73,41.65,86.33,46.68,31.29,5.14,58.83-2.34,77.55-21.07A75.14,75.14,0,0,0,209,276.48a92.22,92.22,0,0,0,3.39-21.05h32.92a5.66,5.66,0,1,0,0-11.32h-33a123,123,0,0,0-3.26-21.66l-.06-.23a75.14,75.14,0,0,0-19.1-32.88C171.17,170.62,143.63,163.14,112.34,168.28Zm69.54,29.06h0a63.83,63.83,0,0,1,16.19,27.89,111.26,111.26,0,0,1,2.9,18.88H176.65l-36.73-36.74a5.66,5.66,0,0,0-8,8l28.73,28.73H118.15l-17.54-17.54a5.66,5.66,0,1,0-8,8l9.53,9.53H62a5.66,5.66,0,1,0,0,11.32h40.12L92.6,265a5.66,5.66,0,1,0,8,8l17.54-17.54h42.49l-28.73,28.73a5.66,5.66,0,0,0,8,8l36.73-36.74H201a80.85,80.85,0,0,1-2.94,17.92,63.92,63.92,0,0,1-16.22,28c-16.07,16.07-40.12,22.43-67.71,17.9-28.28-4.65-56.75-20.1-80.16-43.51A171.05,171.05,0,0,1,12.4,249.33,170.66,170.66,0,0,1,34,223c23.41-23.41,51.88-38.86,80.16-43.5C141.76,174.92,165.81,181.27,181.88,197.34Z"/></svg>